# AST/ASF file generated using VICON BodyLanguage
# -----------------------------------------------
:version 1.10
:name VICON
:units
  mass 1.0
  length 0.45
  angle deg
:documentation
   .ast/.asf automatically generated from VICON data using
   VICON BodyBuilder and BodyLanguage model FoxedUp or BRILLIANT.MOD
:root
   order TX TY TZ RX RY RZ
   axis XYZ
   position 0 0 0  
   orientation 0 0 0 
:bonedata
  begin
     id 1 
     name lhipjoint
     direction 0.661853 -0.702389 0.261917 
     length 2.64193 
     axis 0 0 0  XYZ
  end
  begin
     id 2 
     name lfemur
     direction 0.34202 -0.939693 0  
     length 7.01722  
     axis 0 0 20  XYZ
    dof rx ry rz
    limits (-160.0 20.0)
           (-70.0 70.0)
           (-60.0 70.0)
  end
  begin
     id 3 
     name ltibia
     direction 0.34202 -0.939693 0   
     length 8.25008   
     axis 0 0 20   XYZ
    dof rx
    limits (-10.0 170.0)
  end
  begin
     id 4 
     name lfoot
     direction 0.0709916 -0.195048 0.978221   
     length 2.31941   
     axis -90 7.62852e-016 20   XYZ
    dof rx rz
    limits (-45.0 90.0)
           (-70.0 20.0)
  end
  begin
     id 5 
     name ltoes
     direction 1.53586e-011 -4.22017e-011 1   
     length 1.16486   
     axis -90 7.62852e-016 20   XYZ
    dof rx
    limits (-90.0 20.0)
  end
  begin
     id 6 
     name rhipjoint
     direction -0.638185 -0.721362 0.268992   
     length 2.57244  
     axis 0 0 0  XYZ 
  end
  begin
     id 7 
     name rfemur
     direction -0.34202 -0.939693 0   
     length 7.07017   
     axis 0 0 -20   XYZ
    dof rx ry rz
    limits (-160.0 20.0)
           (-70.0 70.0)
           (-70.0 60.0)
  end
  begin
     id 8 
     name rtibia
     direction -0.34202 -0.939693 0   
     length 8.20386   
     axis 0 0 -20   XYZ
    dof rx
    limits (-10.0 170.0)
 end
 begin
     id 9 
     name rfoot
     direction -0.0822429 -0.225961 0.970658   
     length 2.32215  
     axis -90 -7.62852e-016 -20   XYZ
    dof rx rz
    limits (-45.0 90.0)
           (-20.0 70.0)
  end
  begin
     id 10 
     name rtoes
     direction -1.53597e-011 -4.21689e-011 1   
     length 1.16333   
     axis -90 -7.62852e-016 -20   XYZ
    dof rx
    limits (-90.0 20.0)
  end
  begin
     id 11 
     name lowerback
     direction -0.0131557 0.998589 -0.0514484   
     length 2.14993   
     axis 0 0 0   XYZ
    dof rx ry rz
    limits (-20.0 45.0)
           (-30.0 30.0)
           (-30.0 30.0)
  end
  begin
     id 12 
     name upperback
     direction -0.000776481 0.999993 0.00352685   
     length 2.15301   
     axis 0 0 0   XYZ
    dof rx ry rz
    limits (-20.0 45.0)
           (-30.0 30.0)
           (-30.0 30.0)
  end
  begin
     id 13 
     name thorax
     direction 0.00438186 0.999609 0.0276143   
     length 2.15424   
     axis 0 0 0   XYZ
    dof rx ry rz
    limits (-20.0 45.0)
           (-30.0 30.0)
           (-30.0 30.0)
  end
  begin
     id 14 
     name lowerneck
     direction -0.0488006 0.998094 0.0377807   
     length 1.90481   
     axis 0 0 0   XYZ
    dof rx ry rz
    limits (-20.0 45.0)
           (-30.0 30.0)
           (-30.0 30.0)
  end
  begin
     id 15 
     name upperneck
     direction 0.0443769 0.990702 -0.12861   
     length 1.91305   
     axis 0 0 0   XYZ
    dof rx ry rz
    limits (-20.0 45.0)
           (-30.0 30.0)
           (-30.0 30.0)
  end
  begin
     id 16
     name head
     direction 0.0165599 0.998647 -0.0492982  
     length 1.92369  
     axis 0 0 0   XYZ
    dof rx ry rz
    limits (-20.0 45.0)
           (-30.0 30.0)
           (-30.0 30.0)
  end
  begin
     id 17 
     name lclavicle
     direction 0.911936 0.410197 -0.0105506  
     length 3.52622  
     axis 0 0 0   XYZ
    dof ry rz
    limits (-20.0 10.0)
           (0.0 20.0)
  end
  begin
     id 18 
     name lhumerus
     direction 1 -4.48974e-011 -2.48591e-028   
     length 5.47651   
     axis 180 -30 -90   XYZ
    dof rx ry rz
    limits (-60.0 90.0)
           (-90.0 90.0)
           (-90.0 90.0)
  end
  begin
     id 19
     name lradius
     direction 1 -4.48938e-011 -4.40099e-027   
     length 3.09058   
     axis 180 -30 -90   XYZ
    dof rx
    limits (-10.0 170.0)
  end
  begin
     id 20
     name lwrist
     direction 1 -4.49042e-011 -2.99852e-027   
     length 1.54529   
     axis 1.95339e-015 90 90   XYZ
    dof ry
    limits (-180.0 0.0)
 end
  begin
     id 21 
     name lhand
     direction 1 -4.48815e-011 -5.98193e-027   
     length 0.771611   
     axis 3.82337e-015 90 90   XYZ
    dof rx rz
    limits (-90.0 90.0)
           (-45.0 45.0)
  end
  begin
     id 22 
     name lfingers
     direction 1 -4.49034e-011 -1.1993e-026   
     length 0.622093   
     axis 7.64668e-015 90 90   XYZ
    dof rx
    limits (0.0 90.0)
  end
  begin
     id 23
     name lthumb
     direction 0.707107 -6.34867e-011 0.707107   
     length 0.893204   
     axis -90 45 -1.62303e-014   XYZ
    dof rx rz
    limits (-45.0 45.0)
           (-45.0 45.0)
  end
  begin
     id 24 
     name rclavicle
     direction -0.93442 0.355634 -0.0195692   
     length 3.62463  
     axis 0 0 0   XYZ 
    dof ry rz
    limits (-10.0 20.0)
           (-20.0 0.0)
  end
  begin
     id 25 
     name rhumerus
     direction -1 -4.48957e-011 -1.19147e-027  
     length 5.14182   
     axis 180 30 90   XYZ
    dof rx ry rz
    limits (-90.0 60.0)
           (-90.0 90.0)
           (-90.0 90.0)
  end
  begin
     id 26 
     name rradius
     direction -1 -4.48952e-011 -3.81062e-027   
     length 3.35565   
     axis 180 30 90   XYZ
    dof rx
    limits (-10.0 170.0)
  end
  begin
     id 27 
     name rwrist
     direction -1 -4.48973e-011 -2.99621e-027   
     length 1.67782   
     axis 1.95339e-015 -90 -90   XYZ
    dof ry
    limits (-180.0 0.0)
  end
  begin
     id 28
     name rhand
     direction -1 -4.48895e-011 -5.98727e-027   
     length 0.801042   
     axis 3.82337e-015 -90 -90   XYZ
    dof rx rz
    limits (-90.0 90.0)
           (-45.0 45.0)
  end
  begin
     id 29
     name rfingers
     direction -1 -4.49065e-011 -1.19972e-026   
     length 0.645821   
     axis 7.64668e-015 -90 -90   XYZ
    dof rx
    limits (0.0 90.0)
  end
  begin
     id 30
     name rthumb
     direction -0.707107 -6.34957e-011 0.707107   
     length 0.927273   
     axis -90 -45 1.62303e-014   XYZ
    dof rx rz
    limits (-45.0 45.0)
           (-45.0 45.0)
  end
:hierarchy
  begin
    root lhipjoint rhipjoint lowerback
    lhipjoint lfemur
    lfemur ltibia
    ltibia lfoot
    lfoot ltoes
    rhipjoint rfemur
    rfemur rtibia
    rtibia rfoot
    rfoot rtoes
    lowerback upperback
    upperback thorax
    thorax lowerneck lclavicle rclavicle
    lowerneck upperneck
    upperneck head
    lclavicle lhumerus
    lhumerus lradius
    lradius lwrist
    lwrist lhand lthumb
    lhand lfingers
    rclavicle rhumerus
    rhumerus rradius
    rradius rwrist
    rwrist rhand rthumb
    rhand rfingers
  end

#!OML:ASF E:\Style4\Style4.ASF
:FULLY-SPECIFIED
:DEGREES
1
root 0.102902 18.1626 -0.705206 1.21466 -2.2178 2.83188
lowerback 3.67205 1.40265 -3.82382
upperback 0.872781 1.71761 -0.43848
thorax -1.26007 0.868087 1.61042
lowerneck -3.5865 -3.46643 -5.71397
upperneck 17.0223 -4.767 3.62535
head 5.95709 -2.41913 1.79141
rclavicle -9.83363e-015 -8.79622e-015
rhumerus -53.713 33.185 -102.832
rradius 61.1933
rwrist -35.1429
rhand -15.6371 7.98635
rfingers 7.12502
rthumb 10.5502 -21.7289
lclavicle -9.83363e-015 -8.79622e-015
lhumerus -54.5906 -28.5605 100.943
lradius 67.6478
lwrist 26.0209
lhand -6.52469 35.5546
lfingers 7.12502
lthumb 19.3279 64.6141
rfemur -5.58913 4.50838 15.6535
rtibia 18.5597
rfoot -13.0394 -17.4282
rtoes -13.1355
lfemur -0.566904 -4.96507 -22.9057
ltibia 11.1494
lfoot -12.6238 15.0326
ltoes -17.27
2
root 0.101953 18.1623 -0.699879 1.25932 -2.19575 2.83036
lowerback 3.63186 1.39041 -3.88014
upperback 0.871979 1.70131 -0.422083
thorax -1.23958 0.859793 1.66055
lowerneck -3.69327 -3.46993 -5.76944
upperneck 17.0973 -4.7662 3.64707
head 6.00106 -2.41961 1.80542
rclavicle 3.67503e-014 1.68967e-015
rhumerus -53.7146 33.1344 -102.787
rradius 61.1869
rwrist -35.2131
rhand -15.774 8.04966
rfingers 7.12502
rthumb 10.4182 -21.6722
lclavicle 3.67503e-014 1.68967e-015
lhumerus -54.5237 -28.3536 100.872
lradius 67.6404
lwrist 26.0759
lhand -6.60673 35.601
lfingers 7.12502
lthumb 19.249 64.6684
rfemur -5.57754 4.56137 15.6617
rtibia 18.4968
rfoot -13.003 -17.5072
rtoes -13.2292
lfemur -0.643821 -4.9696 -22.8969
ltibia 11.2318
lfoot -12.7312 15.0026
ltoes -17.1262
3
root 0.101211 18.1598 -0.692165 1.29518 -2.1851 2.82856
lowerback 3.53964 1.38161 -3.90826
upperback 0.898443 1.69363 -0.424224
thorax -1.16106 0.854339 1.67713
lowerneck -3.77916 -3.46604 -5.82596
upperneck 17.1164 -4.75909 3.69523
head 6.02408 -2.41535 1.82893
rclavicle -4.00365e-014 2.5345e-015
rhumerus -53.6834 33.0173 -102.733
rradius 61.1875
rwrist -35.2292
rhand -15.9436 8.14285
rfingers 7.12502
rthumb 10.2546 -21.5872
lclavicle -4.00365e-014 2.5345e-015
lhumerus -54.4681 -28.1543 100.777
lradius 67.6933
lwrist 26.0917
lhand -6.73569 35.6662
lfingers 7.12502
lthumb 19.125 64.7459
rfemur -5.53405 4.66294 15.6555
rtibia 18.3356
rfoot -13.044 -17.6307
rtoes -13.4782
lfemur -0.741523 -4.97202 -22.8915
ltibia 11.3865
lfoot -12.8689 14.9697
ltoes -16.7294
4
root 0.101821 18.1589 -0.684858 1.31838 -2.16539 2.76398
lowerback 3.50047 1.3827 -3.83043
upperback 0.902313 1.69971 -0.436589
thorax -1.13294 0.856676 1.62166
lowerneck -3.79878 -3.47441 -5.81871
upperneck 17.1365 -4.7754 3.72414
head 6.03501 -2.42059 1.8354
rclavicle 3.11595e-014 -8.10048e-015
rhumerus -53.6842 32.819 -102.714
rradius 61.1839
rwrist -35.2383
rhand -15.9867 8.2187
rfingers 7.12502
rthumb 10.2129 -21.5134
lclavicle 3.11595e-014 -8.10048e-015
lhumerus -54.457 -27.9714 100.655
lradius 67.7687
lwrist 26.1243
lhand -6.83004 35.6597
lfingers 7.12502
lthumb 19.0343 64.7484
rfemur -5.48408 4.65708 15.7133
rtibia 18.2192
rfoot -13.0931 -17.6087
rtoes -13.4167
lfemur -0.787335 -4.97927 -22.8228
ltibia 11.4766
lfoot -12.8151 14.9355
ltoes -16.713
5
root 0.10247 18.1575 -0.678354 1.32935 -2.14415 2.7629
lowerback 3.49662 1.40058 -3.8106
upperback 0.887091 1.72353 -0.476464
thorax -1.14599 0.868912 1.56836
lowerneck -3.69969 -3.49485 -5.76341
upperneck 17.0598 -4.81405 3.73699
head 5.99444 -2.43598 1.8296
rclavicle -1.30452e-016 -1.49089e-016
rhumerus -53.7179 32.556 -102.684
rradius 61.1963
rwrist -35.2834
rhand -15.9044 8.29793
rfingers 7.12502
rthumb 10.2924 -21.4302
lclavicle -1.30452e-016 -1.49089e-016
lhumerus -54.4677 -27.8332 100.545
lradius 67.7868
lwrist 26.125
lhand -6.8566 35.6202
lfingers 7.12502
lthumb 19.0087 64.7113
rfemur -5.41975 4.62565 15.7116
rtibia 18.1247
rfoot -13.1383 -17.5761
rtoes -13.1598
lfemur -0.788886 -4.99094 -22.8259
ltibia 11.5114
lfoot -12.7133 14.8854
ltoes -16.9161
6
root 0.103109 18.158 -0.671527 1.34081 -2.12879 2.73123
lowerback 3.49045 1.41615 -3.76722
upperback 0.884441 1.74577 -0.497695
thorax -1.14458 0.879914 1.52136
lowerneck -3.70124 -3.51535 -5.69573
upperneck 17.0489 -4.84456 3.71537
head 5.99051 -2.44801 1.8095
rclavicle -9.27455e-015 1.33683e-014
rhumerus -53.7307 32.3629 -102.67
rradius 61.1906
rwrist -35.3513
rhand -15.9013 8.34762
rfingers 7.12502
rthumb 10.2953 -21.3804
lclavicle -9.27455e-015 1.33683e-014
lhumerus -54.4469 -27.7297 100.458
lradius 67.8002
lwrist 26.1257
lhand -6.87749 35.5306
lfingers 7.12502
lthumb 18.9886 64.6237
rfemur -5.37377 4.63569 15.7475
rtibia 18.0633
rfoot -13.0685 -17.6486
rtoes -13.1921
lfemur -0.782257 -4.9739 -22.792
ltibia 11.5258
lfoot -12.7652 14.9088
ltoes -17.0842
7
root 0.104551 18.1578 -0.664844 1.36916 -2.08917 2.82086
lowerback 3.47194 1.4258 -3.82939
upperback 0.875432 1.75637 -0.550909
thorax -1.14422 0.885407 1.50132
lowerneck -3.74199 -3.53453 -5.66954
upperneck 17.083 -4.87644 3.74254
head 6.00976 -2.45947 1.81081
rclavicle 1.34521e-014 1.41634e-015
rhumerus -53.7489 32.1778 -102.64
rradius 61.1702
rwrist -35.3385
rhand -15.9229 8.47629
rfingers 7.12502
rthumb 10.2745 -21.2528
lclavicle 1.34521e-014 1.41634e-015
lhumerus -54.4163 -27.6392 100.397
lradius 67.8309
lwrist 26.2073
lhand -6.94429 35.5451
lfingers 7.12502
lthumb 18.9244 64.6445
rfemur -5.37663 4.58031 15.6359
rtibia 18.0665
rfoot -13.0274 -17.6649
rtoes -13.2051
lfemur -0.763717 -5.01823 -22.9009
ltibia 11.4766
lfoot -12.8565 14.9594
ltoes -17.1995
8
root 0.105651 18.1582 -0.65865 1.42779 -2.03138 2.81742
lowerback 3.41349 1.42088 -3.79121
upperback 0.855679 1.75311 -0.579853
thorax -1.12961 0.883699 1.45162
lowerneck -3.77102 -3.54274 -5.65741
upperneck 17.1527 -4.89329 3.76793
head 6.03779 -2.46482 1.81504
rclavicle 2.10059e-014 4.37326e-015
rhumerus -53.7356 31.9676 -102.592
rradius 61.135
rwrist -35.303
rhand -15.9341 8.52789
rfingers 7.12502
rthumb 10.2638 -21.2017
lclavicle 2.10059e-014 4.37326e-015
lhumerus -54.4251 -27.5265 100.326
lradius 67.8781
lwrist 26.2758
lhand -6.98082 35.3593
lfingers 7.12502
lthumb 18.8893 64.4621
rfemur -5.39761 4.54998 15.6287
rtibia 18.0655
rfoot -13.1786 -17.6425
rtoes -12.9287
lfemur -0.790294 -5.05009 -22.8986
ltibia 11.4512
lfoot -12.8187 14.9263
ltoes -17.2716
9
root 0.105323 18.1588 -0.651573 1.46419 -1.99541 2.81615
lowerback 3.34746 1.41267 -3.78983
upperback 0.844836 1.74503 -0.586519
thorax -1.10313 0.879376 1.44591
lowerneck -3.7618 -3.53154 -5.64552
upperneck 17.1903 -4.87546 3.73726
head 6.04619 -2.45772 1.80469
rclavicle 7.56935e-015 -2.1916e-014
rhumerus -53.7474 31.7589 -102.52
rradius 61.1533
rwrist -35.3373
rhand -15.902 8.53732
rfingers 7.12502
rthumb 10.2947 -21.1907
lclavicle 7.56935e-015 -2.1916e-014
lhumerus -54.4184 -27.3225 100.235
lradius 67.9023
lwrist 26.3392
lhand -6.9415 35.1169
lfingers 7.12502
lthumb 18.9271 64.216
rfemur -5.413 4.52394 15.6311
rtibia 18.0943
rfoot -13.2395 -17.6189
rtoes -12.8527
lfemur -0.794303 -5.04121 -22.8947
ltibia 11.419
lfoot -12.8 14.9052
ltoes -17.4718
10
root 0.103074 18.1581 -0.644294 1.48178 -1.99376 2.78554
lowerback 3.31327 1.40962 -3.80371
upperback 0.835136 1.74216 -0.562704
thorax -1.09495 0.877994 1.47894
lowerneck -3.68603 -3.52248 -5.63774
upperneck 17.0854 -4.85316 3.66595
head 5.99724 -2.45213 1.78392
rclavicle 3.83546e-014 -1.51076e-014
rhumerus -53.766 31.6164 -102.437
rradius 61.1809
rwrist -35.4682
rhand -15.8679 8.54179
rfingers 7.12502
rthumb 10.3276 -21.1846
lclavicle 3.83546e-014 -1.51076e-014
lhumerus -54.3844 -27.0791 100.159
lradius 67.8849
lwrist 26.272
lhand -6.81548 35.0216
lfingers 7.12502
lthumb 19.0483 64.1089
rfemur -5.40745 4.51725 15.6783
rtibia 18.1004
rfoot -13.2296 -17.6451
rtoes -13.0571
lfemur -0.795424 -5.01654 -22.8504
ltibia 11.4341
lfoot -12.8832 14.8602
ltoes -17.3501
11
root 0.100091 18.1572 -0.637838 1.49748 -2.00526 2.78601
lowerback 3.29018 1.4101 -3.86792
upperback 0.824128 1.74172 -0.540748
thorax -1.09587 0.878086 1.53778
lowerneck -3.65668 -3.5102 -5.66844
upperneck 17.0385 -4.83091 3.64895
head 5.97677 -2.44469 1.78574
rclavicle -5.31128e-015 1.58282e-014
rhumerus -53.8028 31.5612 -102.403
rradius 61.1849
rwrist -35.643
rhand -15.8218 8.56354
rfingers 7.12502
rthumb 10.3721 -21.1607
lclavicle -5.31128e-015 1.58282e-014
lhumerus -54.3843 -26.8597 100.107
lradius 67.9352
lwrist 26.1887
lhand -6.81812 35.0616
lfingers 7.12502
lthumb 19.0457 64.1491
rfemur -5.4259 4.5827 15.6919
rtibia 18.1264
rfoot -13.298 -17.6832
rtoes -12.8864
lfemur -0.788559 -4.9967 -22.8395
ltibia 11.4189
lfoot -12.8049 14.8624
ltoes -17.3837
